fd_5_states
version=1
nRows=27
nColumns=17
inDegrees=yes

# SIMM Motion File Header:
name fd_5_states
datacolumns 17
datarows 27
otherdata 1
range 0.090941 0.102894
endheader
time	/jointset/r_shoulder/r_shoulder_elev/value	/jointset/r_shoulder/r_shoulder_elev/speed	/jointset/r_elbow/r_elbow_flex/value	/jointset/r_elbow/r_elbow_flex/speed	/forceset/TRIlong/activation	/forceset/TRIlong/fiber_length	/forceset/TRIlat/activation	/forceset/TRIlat/fiber_length	/forceset/TRImed/activation	/forceset/TRImed/fiber_length	/forceset/BIClong/activation	/forceset/BIClong/fiber_length	/forceset/BICshort/activation	/forceset/BICshort/fiber_length	/forceset/BRA/activation	/forceset/BRA/fiber_length
      0.090941	     -0.008208	     -0.052065	    106.658894	   -319.095226	      0.020000	      0.175235	      0.472551	      0.108730	      0.473943	      0.103765	      0.250924	      0.081454	      0.020000	      0.082980	      0.022893	      0.061678
      0.091411	     -0.008232	     -0.048107	    106.509098	   -318.665531	      0.020000	      0.175185	      0.472702	      0.108678	      0.474013	      0.103714	      0.250539	      0.081583	      0.020000	      0.083107	      0.022875	      0.061722
      0.091832	     -0.008252	     -0.047089	    106.375094	   -318.269039	      0.020000	      0.175141	      0.472831	      0.108631	      0.474074	      0.103667	      0.250197	      0.081698	      0.020000	      0.083221	      0.022859	      0.061796
      0.092252	     -0.008271	     -0.043687	    106.241255	   -317.884366	      0.020000	      0.175097	      0.472957	      0.108585	      0.474132	      0.103621	      0.249859	      0.081813	      0.020000	      0.083335	      0.022843	      0.061835
      0.092787	     -0.008293	     -0.042836	    106.071585	   -317.380185	      0.020000	      0.175042	      0.473110	      0.108526	      0.474203	      0.103563	      0.249434	      0.081958	      0.020000	      0.083479	      0.022823	      0.061937
      0.093321	     -0.008314	     -0.036867	    105.902178	   -316.900959	      0.020000	      0.174986	      0.473256	      0.108467	      0.474271	      0.103504	      0.249015	      0.082104	      0.020000	      0.083622	      0.022803	      0.061976
      0.093749	     -0.008330	     -0.036003	    105.766660	   -316.499008	      0.020000	      0.174941	      0.473369	      0.108420	      0.474323	      0.103457	      0.248682	      0.082220	      0.020000	      0.083738	      0.022787	      0.062049
      0.094176	     -0.008344	     -0.032858	    105.631312	   -316.108277	      0.020000	      0.174897	      0.473478	      0.108373	      0.474374	      0.103410	      0.248353	      0.082337	      0.020000	      0.083853	      0.022771	      0.062090
      0.094698	     -0.008361	     -0.032324	    105.466503	   -315.616900	      0.020000	      0.174843	      0.473605	      0.108316	      0.474433	      0.103354	      0.247956	      0.082478	      0.020000	      0.083993	      0.022752	      0.062189
      0.095220	     -0.008376	     -0.026733	    105.301945	   -315.149908	      0.020000	      0.174788	      0.473727	      0.108259	      0.474490	      0.103297	      0.247564	      0.082620	      0.020000	      0.084133	      0.022733	      0.062227
      0.095669	     -0.008388	     -0.025979	    105.160628	   -314.729799	      0.020000	      0.174742	      0.473828	      0.108210	      0.474537	      0.103248	      0.247231	      0.082741	      0.020000	      0.084253	      0.022716	      0.062301
      0.096117	     -0.008399	     -0.022996	    105.019498	   -314.320597	      0.020000	      0.174696	      0.473925	      0.108161	      0.474582	      0.103199	      0.246901	      0.082863	      0.020000	      0.084373	      0.022700	      0.062345
      0.096566	     -0.008409	     -0.022466	    104.878553	   -313.900426	      0.020000	      0.174649	      0.474019	      0.108112	      0.474625	      0.103150	      0.246574	      0.082984	      0.020000	      0.084493	      0.022684	      0.062421
      0.097015	     -0.008418	     -0.019383	    104.737795	   -313.492621	      0.020000	      0.174603	      0.474109	      0.108063	      0.474667	      0.103102	      0.246251	      0.083105	      0.020000	      0.084613	      0.022668	      0.062462
      0.097464	     -0.008426	     -0.018904	    104.597221	   -313.073187	      0.020000	      0.174557	      0.474196	      0.108014	      0.474708	      0.103053	      0.245931	      0.083226	      0.020000	      0.084732	      0.022652	      0.062536
      0.097912	     -0.008434	     -0.016166	    104.456834	   -312.664688	      0.020000	      0.174510	      0.474279	      0.107966	      0.474747	      0.103005	      0.245615	      0.083347	      0.020000	      0.084852	      0.022636	      0.062579
      0.098361	     -0.008441	     -0.015872	    104.316633	   -312.245364	      0.020000	      0.174464	      0.474360	      0.107917	      0.474784	      0.102956	      0.245301	      0.083468	      0.020000	      0.084971	      0.022620	      0.062654
      0.098810	     -0.008448	     -0.013198	    104.176617	   -311.837504	      0.020000	      0.174418	      0.474438	      0.107868	      0.474820	      0.102908	      0.244991	      0.083588	      0.020000	      0.085091	      0.022605	      0.062696
      0.099258	     -0.008453	     -0.013002	    104.036786	   -311.418692	      0.020000	      0.174372	      0.474513	      0.107820	      0.474855	      0.102860	      0.244684	      0.083709	      0.020000	      0.085210	      0.022589	      0.062770
      0.099707	     -0.008459	     -0.010557	    103.897141	   -311.010691	      0.020000	      0.174326	      0.474585	      0.107771	      0.474889	      0.102812	      0.244380	      0.083829	      0.020000	      0.085329	      0.022574	      0.062813
      0.100156	     -0.008463	     -0.010502	    103.757682	   -310.592186	      0.020000	      0.174280	      0.474692	      0.107723	      0.474964	      0.102763	      0.244076	      0.083949	      0.020000	      0.085448	      0.022570	      0.062886
      0.100605	     -0.008467	     -0.008470	    103.618408	   -310.183229	      0.020000	      0.174234	      0.475143	      0.107675	      0.475436	      0.102715	      0.243746	      0.084069	      0.020000	      0.085567	      0.022817	      0.062927
      0.101053	     -0.008471	     -0.009130	    103.479320	   -309.762623	      0.020000	      0.174189	      0.475609	      0.107626	      0.475928	      0.102667	      0.243416	      0.084189	      0.020000	      0.085685	      0.023079	      0.062987
      0.101513	     -0.008476	     -0.009511	    103.336905	   -309.333517	      0.020000	      0.174142	      0.476068	      0.107577	      0.476412	      0.102618	      0.243081	      0.084312	      0.020000	      0.085807	      0.023327	      0.063038
      0.101973	     -0.008480	     -0.011726	    103.194688	   -308.896908	      0.020000	      0.174095	      0.476511	      0.107527	      0.476879	      0.102568	      0.242750	      0.084435	      0.020000	      0.085928	      0.023553	      0.063105
      0.102433	     -0.008486	     -0.012738	    103.052671	   -308.466633	      0.020000	      0.174048	      0.476936	      0.107478	      0.477328	      0.102519	      0.242422	      0.084558	      0.020000	      0.086049	      0.023761	      0.063152
      0.102894	     -0.008493	     -0.015788	    102.910853	   -308.027985	      0.020000	      0.174002	      0.477346	      0.107428	      0.477760	      0.102469	      0.242098	      0.084680	      0.020000	      0.086170	      0.023952	      0.063218
